# This file uses centimeters as units for non-parametric coordinates.

mtllib tree.mtl
g default
v 0.890588 2.362351 -0.579162
v 0.514181 2.362351 -1.003139
v 0.000000 2.362351 -1.158325
v -0.514181 2.362351 -1.003139
v -0.890588 2.362351 -0.579162
v -1.028363 2.362351 0.000000
v -0.890588 2.362351 0.579162
v -0.514181 2.362351 1.003139
v 0.000000 2.362351 1.158325
v 0.514181 2.362351 1.003139
v 0.890588 2.362351 0.579162
v 1.028363 2.362351 0.000000
v 0.825387 4.336518 -0.384105
v 0.476537 4.336518 -0.665290
v 0.000000 4.336518 -0.768211
v -0.476537 4.336518 -0.665290
v -0.825387 4.336518 -0.384105
v -0.953075 4.336518 0.000000
v -0.825387 4.336518 0.384105
v -0.476537 4.336518 0.665290
v 0.000000 4.336518 0.768211
v 0.476537 4.336518 0.665290
v 0.825387 4.336518 0.384105
v 0.953075 4.336518 0.000000
v 0.723803 6.310686 -0.343663
v 0.417888 6.310686 -0.595241
v 0.000000 6.310686 -0.687326
v -0.417888 6.310686 -0.595241
v -0.723803 6.310686 -0.343663
v -0.835776 6.310686 0.000000
v -0.723803 6.310686 0.343663
v -0.417888 6.310686 0.595241
v 0.000000 6.310686 0.687326
v 0.417888 6.310686 0.595241
v 0.723803 6.310686 0.343663
v 0.835776 6.310686 0.000000
v 0.723803 8.284854 -0.299448
v 0.417888 8.284854 -0.518659
v 0.000000 8.284854 -0.598896
v -0.417888 8.284854 -0.518659
v -0.723803 8.284854 -0.299448
v -0.835776 8.284854 0.000000
v -0.723803 8.284854 0.299448
v -0.417888 8.284854 0.518659
v 0.000000 8.284854 0.598896
v 0.417888 8.284854 0.518659
v 0.723803 8.284854 0.299448
v 0.835776 8.284854 0.000000
v 0.606230 10.259021 -0.338472
v 0.350007 10.259021 -0.584267
v 0.000000 10.259021 -0.676944
v -0.350007 10.259021 -0.584267
v -0.606230 10.259021 -0.338472
v -0.700014 10.259021 0.000000
v -0.606230 10.259021 0.338472
v -0.350007 10.259021 0.584267
v 0.000000 10.259021 0.676944
v 0.350007 10.259021 0.584267
v 0.606230 10.259021 0.338472
v 0.700014 10.259021 0.000000
v 0.723803 12.400947 -0.420450
v 0.417888 12.400947 -0.728240
v 0.000000 12.400947 -0.840900
v -0.417888 12.400947 -0.728240
v -0.723803 12.400947 -0.420450
v -0.835776 12.400947 0.000000
v -0.723803 12.400947 0.420450
v -0.417888 12.400947 0.728240
v 0.000000 12.400947 0.840900
v 0.417888 12.400947 0.728240
v 0.723803 12.400947 0.420450
v 0.835776 12.400947 0.000000
v 0.000000 2.362351 0.000000
v -0.429375 2.772838 0.726335
v -0.743699 2.772838 0.419350
v -0.858750 2.772838 0.000000
v -0.743699 2.772838 -0.419350
v -0.429375 2.772838 -0.726335
v 0.000000 2.772838 -0.838700
v 0.429375 2.772838 -0.726335
v 0.743699 2.772838 -0.419350
v 0.858750 2.772838 0.000000
v 0.743699 2.772838 0.419350
v 0.429375 2.772838 0.726335
v 0.000000 2.772838 0.838700
v -0.423420 13.365624 0.700268
v -0.733386 13.365624 0.404300
v -0.846841 13.365624 0.000000
v -0.733386 13.365624 -0.404300
v -0.423420 13.365624 -0.700268
v 0.000000 13.365624 -0.808600
v 0.423420 13.365624 -0.700268
v 0.733386 13.365624 -0.404300
v 0.846841 13.365624 0.000000
v 0.733386 13.365624 0.404300
v 0.423420 13.365624 0.700268
v 0.000000 13.365624 0.808600
v 0.837008 7.219932 0.000000
v 0.724464 7.226888 0.326584
v 0.417855 7.239254 0.564882
v 0.000000 7.244172 0.651771
v -0.417855 7.239254 0.564882
v -0.724464 7.226888 0.326584
v -0.837008 7.219932 0.000000
v -0.724464 7.226888 -0.326584
v -0.417855 7.239254 -0.564882
v 0.000000 7.244172 -0.651771
v 0.417855 7.239254 -0.564882
v 0.724464 7.226888 -0.326584
v 0.779557 5.227162 -0.379716
v 0.450078 5.227162 -0.657688
v 0.000000 5.227162 -0.759432
v -0.450078 5.227162 -0.657688
v -0.779557 5.227162 -0.379716
v -0.900155 5.227162 0.000000
v -0.779557 5.227162 0.379716
v -0.450078 5.227162 0.657688
v 0.000000 5.227162 0.759432
v 0.450078 5.227162 0.657688
v 0.779557 5.227162 0.379716
v 0.900155 5.227162 0.000000
v 0.668777 9.208786 -0.347237
v 0.386119 9.208786 -0.600628
v 0.000000 9.208786 -0.694474
v -0.386119 9.208786 -0.600628
v -0.668777 9.208786 -0.347237
v -0.772238 9.208786 0.000000
v -0.668777 9.208786 0.347237
v -0.386119 9.208786 0.600628
v 0.000000 9.208786 0.694474
v 0.386119 9.208786 0.600628
v 0.668777 9.208786 0.347237
v 0.772238 9.208786 0.000000
v 0.672451 11.370936 -0.389701
v 0.388240 11.370936 -0.674150
v 0.000000 11.370936 -0.779403
v -0.388240 11.370936 -0.674150
v -0.672451 11.370936 -0.389701
v -0.776479 11.370936 0.000000
v -0.672451 11.370936 0.389701
v -0.388240 11.370936 0.674150
v 0.000000 11.370936 0.779403
v 0.388240 11.370936 0.674150
v 0.672451 11.370936 0.389701
v 0.776479 11.370936 0.000000
v 0.000000 13.365624 0.000000
vt 0.412010 0.292752
vt 0.338397 0.290745
vt 0.339541 0.253380
vt 0.412837 0.254598
vt 0.407449 0.323216
vt 0.337506 0.321227
vt 0.264573 0.289931
vt 0.266207 0.251934
vt 0.340191 0.223597
vt 0.410164 0.224015
vt 0.491622 0.294956
vt 0.492009 0.255909
vt 0.418063 0.375761
vt 0.335870 0.375249
vt 0.267313 0.320225
vt 0.487633 0.325252
vt 0.184739 0.289168
vt 0.187230 0.250322
vt 0.270317 0.221320
vt 0.340603 0.188955
vt 0.405264 0.188680
vt 0.489211 0.224040
vt 0.253833 0.373161
vt 0.498228 0.378059
vt 0.186632 0.319384
vt 0.191860 0.218541
vt 0.276536 0.185720
vt 0.341012 0.156378
vt 0.417026 0.156666
vt 0.484573 0.187640
vt 0.172266 0.372194
vt 0.198287 0.182137
vt 0.265233 0.153757
vt 0.341752 0.118489
vt 0.420517 0.119320
vt 0.495545 0.153786
vt 0.188226 0.148244
vt 0.263021 0.116175
vt 0.342368 0.078096
vt 0.421992 0.078590
vt 0.498326 0.118152
vt 0.185660 0.112405
vt 0.262672 0.075192
vt 0.342870 0.041592
vt 0.422043 0.042257
vt 0.499792 0.077023
vt 0.184471 0.070949
vt 0.263294 0.038693
vt 0.343273 0.009287
vt 0.418948 0.010168
vt 0.499755 0.041034
vt 0.184214 0.034815
vt 0.266894 0.006525
vt 0.496531 0.008906
vt 0.187304 0.002591
vt 0.894398 0.283672
vt 0.819254 0.287862
vt 0.816162 0.250595
vt 0.889370 0.246020
vt 0.894161 0.314156
vt 0.821831 0.318236
vt 0.744579 0.291451
vt 0.742609 0.253415
vt 0.813776 0.220931
vt 0.882594 0.216279
vt 0.977117 0.274589
vt 0.967632 0.237039
vt 0.912532 0.364803
vt 0.826023 0.372021
vt 0.750274 0.321518
vt 0.978496 0.305149
vt 0.664319 0.294656
vt 0.663127 0.255589
vt 0.744093 0.222649
vt 0.811276 0.186419
vt 0.874138 0.181782
vt 0.959004 0.207660
vt 0.741645 0.375065
vt 0.998553 0.355604
vt 0.669119 0.324802
vt 0.665084 0.223549
vt 0.747728 0.186814
vt 0.809766 0.154002
vt 0.883677 0.149961
vt 0.948454 0.174767
vt 0.659732 0.378424
vt 0.669070 0.186856
vt 0.734809 0.155496
vt 0.809174 0.116292
vt 0.885888 0.113172
vt 0.959015 0.143316
vt 0.657419 0.153432
vt 0.731398 0.118118
vt 0.809405 0.076115
vt 0.888480 0.073278
vt 0.958718 0.110225
vt 0.654121 0.117726
vt 0.730537 0.077307
vt 0.809829 0.039753
vt 0.889651 0.037609
vt 0.966593 0.072700
vt 0.653197 0.076480
vt 0.730968 0.040865
vt 0.810114 0.007503
vt 0.886933 0.005738
vt 0.971933 0.037926
vt 0.653416 0.040393
vt 0.734360 0.008571
vt 0.968596 0.005904
vt 0.656737 0.008051
vt 0.421206 0.596026
vt 0.403939 0.706720
vt 0.358901 0.669640
vt 0.377794 0.585660
vt 0.335252 0.787776
vt 0.300295 0.734016
vt 0.382265 0.484916
vt 0.352106 0.504497
vt 0.233108 0.817298
vt 0.217536 0.760994
vt 0.296808 0.403830
vt 0.288600 0.447801
vt 0.124925 0.787625
vt 0.133217 0.743682
vt 0.188727 0.374347
vt 0.204385 0.430620
vt 0.039641 0.706369
vt 0.069858 0.686871
vt 0.086819 0.403963
vt 0.121812 0.457717
vt 0.000977 0.595278
vt 0.044382 0.605702
vt 0.018223 0.484826
vt 0.063251 0.521899
vt 0.898251 0.405456
vt 0.972022 0.488549
vt 0.797479 0.602057
vt 0.999023 0.602057
vt 0.797479 0.375042
vt 0.972022 0.715564
vt 0.696707 0.405456
vt 0.898251 0.798658
vt 0.622936 0.488549
vt 0.797479 0.829072
vt 0.595935 0.602057
vt 0.696707 0.798658
vt 0.622936 0.715564
vt 0.589009 0.973266
vt 0.509771 0.829533
vt 0.668246 0.829533
vt 0.647014 0.912517
vt 0.430534 0.973266
vt 0.509771 0.995501
vt 0.589009 0.685799
vt 0.647014 0.746548
vt 0.372529 0.912517
vt 0.351297 0.829533
vt 0.430534 0.685799
vt 0.509771 0.663564
vt 0.372529 0.746548
vt 0.577899 0.295887
vt 0.577514 0.256684
vt 0.578232 0.326034
vt 0.577143 0.224416
vt 0.578487 0.380240
vt 0.576827 0.187871
vt 0.576769 0.151991
vt 0.576340 0.117133
vt 0.576583 0.075911
vt 0.576606 0.040118
vt 0.576664 0.007647
vt 0.098136 0.285628
vt 0.102519 0.247384
vt 0.094887 0.315160
vt 0.009799 0.276306
vt 0.018760 0.240164
vt 0.105601 0.215773
vt 0.089371 0.368793
vt 0.000977 0.304694
vt 0.021241 0.210732
vt 0.108203 0.179916
vt 0.005128 0.357721
vt 0.021799 0.177635
vt 0.109246 0.144451
vt 0.030972 0.145661
vt 0.108952 0.110144
vt 0.035549 0.112829
vt 0.106832 0.068753
vt 0.028355 0.072955
vt 0.104726 0.033155
vt 0.022351 0.036942
vt 0.103500 0.000977
vt 0.018289 0.004702
vn 0.747047 0.467985 -0.472134
vn 0.389816 0.566473 -0.726053
vn 0.457139 0.552044 -0.697332
vn 0.801835 0.446713 -0.396873
vn 0.000000 0.602946 -0.797782
vn 0.000000 0.602946 -0.797782
vn -0.389816 0.566473 -0.726053
vn -0.457139 0.552044 -0.697332
vn -0.747047 0.467985 -0.472134
vn -0.801835 0.446713 -0.396873
vn -0.917061 0.398746 0.000000
vn -0.917061 0.398746 0.000000
vn -0.747047 0.467985 0.472134
vn -0.801835 0.446713 0.396873
vn -0.389816 0.566473 0.726053
vn -0.457139 0.552044 0.697332
vn 0.000000 0.602946 0.797782
vn 0.000000 0.602946 0.797782
vn 0.389816 0.566473 0.726053
vn 0.457139 0.552044 0.697332
vn 0.747047 0.467985 0.472134
vn 0.801835 0.446713 0.396873
vn 0.917061 0.398746 -0.000000
vn 0.917061 0.398746 -0.000000
vn 0.813029 0.052257 -0.579873
vn 0.423191 0.043192 -0.905010
vn 0.431624 0.064096 -0.899773
vn 0.819647 0.061784 -0.569528
vn -0.000000 0.039831 -0.999206
vn 0.000000 0.065268 -0.997868
vn -0.423191 0.043192 -0.905010
vn -0.431624 0.064096 -0.899773
vn -0.813029 0.052257 -0.579873
vn -0.819647 0.061784 -0.569528
vn -0.998292 0.058427 -0.000000
vn -0.998158 0.060674 -0.000000
vn -0.813029 0.052257 0.579873
vn -0.819647 0.061784 0.569528
vn -0.423191 0.043192 0.905010
vn -0.431624 0.064096 0.899773
vn 0.000000 0.039831 0.999206
vn 0.000000 0.065268 0.997868
vn 0.423191 0.043192 0.905010
vn 0.431624 0.064096 0.899773
vn 0.813029 0.052257 0.579873
vn 0.819647 0.061784 0.569528
vn 0.998292 0.058427 0.000000
vn 0.998158 0.060674 0.000000
vn 0.800099 0.012448 -0.599739
vn 0.407068 0.028727 -0.912946
vn 0.405197 0.033844 -0.913603
vn 0.798700 0.015361 -0.601533
vn -0.000000 0.035380 -0.999374
vn -0.000000 0.041565 -0.999136
vn -0.407068 0.028727 -0.912946
vn -0.405197 0.033844 -0.913603
vn -0.800099 0.012448 -0.599739
vn -0.798700 0.015361 -0.601533
vn -0.999998 0.002097 0.000000
vn -0.999993 0.003852 0.000000
vn -0.800099 0.012448 0.599739
vn -0.798700 0.015361 0.601533
vn -0.407068 0.028727 0.912946
vn -0.405197 0.033844 0.913603
vn 0.000000 0.035380 0.999374
vn 0.000000 0.041565 0.999136
vn 0.407068 0.028727 0.912946
vn 0.405197 0.033844 0.913603
vn 0.800099 0.012448 0.599739
vn 0.798700 0.015361 0.601533
vn 0.999998 0.002097 -0.000000
vn 0.999993 0.003852 0.000000
vn 0.818701 0.029059 -0.573484
vn 0.434007 -0.016374 -0.900761
vn 0.455943 0.030211 -0.889496
vn 0.836842 0.052593 -0.544912
vn -0.000000 -0.032900 -0.999459
vn 0.000000 0.020487 -0.999790
vn -0.434007 -0.016374 -0.900761
vn -0.455943 0.030211 -0.889496
vn -0.818701 0.029059 -0.573484
vn -0.836842 0.052593 -0.544912
vn -0.998170 0.060465 -0.000000
vn -0.997871 0.065224 -0.000000
vn -0.818701 0.029059 0.573484
vn -0.836842 0.052593 0.544912
vn -0.434007 -0.016374 0.900761
vn -0.455943 0.030211 0.889496
vn 0.000000 -0.032900 0.999459
vn 0.000000 0.020487 0.999790
vn 0.434007 -0.016374 0.900761
vn 0.455943 0.030211 0.889496
vn 0.818701 0.029059 0.573484
vn 0.836842 0.052593 0.544912
vn 0.998170 0.060465 0.000000
vn 0.997871 0.065224 0.000000
vn 0.860947 -0.066319 -0.504353
vn 0.493925 -0.071618 -0.866550
vn 0.499747 -0.059342 -0.864136
vn 0.864987 -0.058219 -0.498406
vn 0.000000 -0.074189 -0.997244
vn 0.000000 -0.059892 -0.998205
vn -0.493925 -0.071618 -0.866550
vn -0.499747 -0.059342 -0.864136
vn -0.860947 -0.066319 -0.504353
vn -0.864987 -0.058219 -0.498406
vn -0.997984 -0.063465 -0.000000
vn -0.998340 -0.057596 0.000000
vn -0.860947 -0.066319 0.504353
vn -0.864987 -0.058219 0.498406
vn -0.493925 -0.071618 0.866550
vn -0.499747 -0.059342 0.864136
vn -0.000000 -0.074189 0.997244
vn -0.000000 -0.059892 0.998205
vn 0.493925 -0.071618 0.866550
vn 0.499747 -0.059342 0.864136
vn 0.860947 -0.066319 0.504353
vn 0.864987 -0.058219 0.498406
vn 0.997984 -0.063465 0.000000
vn 0.998340 -0.057596 -0.000000
vn 0.851825 0.002149 -0.523822
vn 0.475816 0.021586 -0.879280
vn 0.507917 0.020248 -0.861168
vn 0.871187 0.000764 -0.490951
vn 0.000000 0.030472 -0.999536
vn 0.000000 0.030472 -0.999536
vn -0.475816 0.021586 -0.879280
vn -0.507917 0.020248 -0.861168
vn -0.851825 0.002149 -0.523822
vn -0.871187 0.000764 -0.490950
vn -0.999965 -0.008414 0.000000
vn -0.999965 -0.008414 0.000000
vn -0.851825 0.002149 0.523822
vn -0.871187 0.000764 0.490951
vn -0.475816 0.021586 0.879280
vn -0.507917 0.020248 0.861168
vn 0.000000 0.030472 0.999536
vn 0.000000 0.030472 0.999536
vn 0.475816 0.021586 0.879280
vn 0.507917 0.020248 0.861168
vn 0.851825 0.002149 0.523822
vn 0.871187 0.000764 0.490950
vn 0.999965 -0.008414 -0.000000
vn 0.999965 -0.008414 -0.000000
vn 0.000000 -1.000000 0.000000
vn 0.000000 -1.000000 0.000000
vn 0.000000 -1.000000 0.000000
vn 0.000000 -1.000000 0.000000
vn 0.000000 -1.000000 0.000000
vn 0.000000 -1.000000 0.000000
vn 0.000000 -1.000000 0.000000
vn 0.000000 -1.000000 0.000000
vn 0.000000 -1.000000 0.000000
vn 0.000000 -1.000000 0.000000
vn 0.000000 -1.000000 0.000000
vn 0.000000 -1.000000 0.000000
vn 0.000000 -1.000000 0.000000
vn -0.813196 -0.024125 0.581490
vn -0.418873 0.021090 0.907800
vn -0.489861 0.014280 0.871684
vn -0.863444 -0.032023 0.503427
vn -0.998605 -0.052803 0.000000
vn -0.998605 -0.052803 0.000000
vn -0.813196 -0.024125 -0.581490
vn -0.863444 -0.032023 -0.503427
vn -0.418873 0.021090 -0.907800
vn -0.489861 0.014280 -0.871684
vn 0.000000 0.038447 -0.999261
vn 0.000000 0.038447 -0.999261
vn 0.418873 0.021090 -0.907800
vn 0.489861 0.014280 -0.871684
vn 0.813196 -0.024125 -0.581490
vn 0.863444 -0.032023 -0.503427
vn 0.998605 -0.052803 0.000000
vn 0.998605 -0.052803 0.000000
vn 0.813196 -0.024125 0.581490
vn 0.863444 -0.032023 0.503427
vn 0.418873 0.021090 0.907800
vn 0.489861 0.014280 0.871684
vn -0.000000 0.038447 0.999261
vn -0.000000 0.038447 0.999261
vn 0.999985 0.005475 0.000000
vn 0.804943 0.017304 0.593100
vn 0.409458 0.038154 0.911531
vn 0.000000 0.047443 0.998874
vn -0.409458 0.038154 0.911531
vn -0.804943 0.017304 0.593100
vn -0.999985 0.005475 0.000000
vn -0.804943 0.017304 -0.593100
vn -0.409458 0.038154 -0.911531
vn -0.000000 0.047443 -0.998874
vn 0.409458 0.038154 -0.911531
vn 0.804943 0.017304 -0.593100
vn 0.833407 0.044508 -0.550865
vn 0.448070 0.022661 -0.893711
vn 0.000000 0.012476 -0.999922
vn -0.448070 0.022661 -0.893711
vn -0.833407 0.044508 -0.550865
vn -0.998422 0.056149 0.000000
vn -0.833407 0.044508 0.550865
vn -0.448070 0.022661 0.893711
vn 0.000000 0.012476 0.999922
vn 0.448070 0.022661 0.893711
vn 0.833407 0.044508 0.550865
vn 0.998422 0.056149 -0.000000
vn 0.855249 0.023002 -0.517707
vn 0.464796 -0.053718 -0.883787
vn 0.000000 -0.091969 -0.995762
vn -0.464796 -0.053718 -0.883787
vn -0.855249 0.023002 -0.517706
vn -0.998461 0.055462 0.000000
vn -0.855249 0.023002 0.517707
vn -0.464796 -0.053718 0.883787
vn 0.000000 -0.091969 0.995762
vn 0.464796 -0.053718 0.883787
vn 0.855249 0.023002 0.517706
vn 0.998461 0.055462 -0.000000
vn 0.863919 -0.075356 -0.497962
vn 0.499672 -0.085473 -0.861987
vn 0.000000 -0.090725 -0.995876
vn -0.499672 -0.085473 -0.861987
vn -0.863919 -0.075356 -0.497962
vn -0.997530 -0.070247 -0.000000
vn -0.863919 -0.075356 0.497962
vn -0.499672 -0.085473 0.861987
vn -0.000000 -0.090725 0.995876
vn 0.499672 -0.085473 0.861987
vn 0.863919 -0.075356 0.497962
vn 0.997530 -0.070247 0.000000
vn 0.000000 1.000000 0.000001
vn 0.000000 1.000000 -0.000000
vn 0.000000 1.000000 0.000001
vn 0.000000 1.000000 0.000001
vn 0.000000 1.000000 0.000001
vn 0.000000 1.000000 0.000001
vn 0.000000 1.000000 -0.000001
vn 0.000000 1.000000 0.000000
vn 0.000000 1.000000 -0.000001
vn 0.000000 1.000000 -0.000002
vn 0.000000 1.000000 -0.000001
vn 0.000000 1.000000 -0.000002
vn 0.000000 1.000000 0.000000
s 1
g pCylinder1
usemtl initialShadingGroup
f 1/111/1 2/112/2 80/113/3 81/114/4
f 2/112/2 3/115/5 79/116/6 80/113/3
f 3/115/5 4/119/7 78/120/8 79/116/6
f 4/119/7 5/123/9 77/124/10 78/120/8
f 5/123/9 6/127/11 76/128/12 77/124/10
f 6/127/11 7/131/13 75/132/14 76/128/12
f 7/131/13 8/133/15 74/134/16 75/132/14
f 8/133/15 9/129/17 85/130/18 74/134/16
f 9/129/17 10/125/19 84/126/20 85/130/18
f 10/125/19 11/121/21 83/122/22 84/126/20
f 11/121/21 12/117/23 82/118/24 83/122/22
f 12/117/23 1/111/1 81/114/4 82/118/24
s 2
f 110/62/25 111/72/26 26/73/27 25/63/28
f 111/72/26 112/161/29 27/162/30 26/73/27
f 112/161/29 113/11/31 28/12/32 27/162/30
f 113/11/31 114/1/33 29/4/34 28/12/32
f 114/1/33 115/2/35 30/3/36 29/4/34
f 115/2/35 116/7/37 31/8/38 30/3/36
f 116/7/37 117/17/39 32/18/40 31/8/38
f 117/17/39 118/172/41 33/173/42 32/18/40
f 118/172/41 119/175/43 34/176/44 33/173/42
f 119/66/43 120/56/45 35/59/46 34/67/44
f 120/56/45 121/57/47 36/58/48 35/59/46
f 121/57/47 110/62/25 25/63/28 36/58/48
s 3
f 25/63/49 26/73/50 108/81/51 109/74/52
f 26/73/50 27/162/53 107/164/54 108/81/51
f 27/162/53 28/12/55 106/22/56 107/164/54
f 28/12/55 29/4/57 105/10/58 106/22/56
f 29/4/57 30/3/59 104/9/60 105/10/58
f 30/3/59 31/8/61 103/19/62 104/9/60
f 31/8/61 32/18/63 102/26/64 103/19/62
f 32/18/63 33/173/65 101/177/66 102/26/64
f 33/173/65 34/176/67 100/180/68 101/177/66
f 34/67/67 35/59/69 99/65/70 100/77/68
f 35/59/69 36/58/71 98/64/72 99/65/70
f 36/58/71 25/63/49 109/74/52 98/64/72
s 4
f 122/88/73 123/92/74 50/97/75 49/93/76
f 123/92/74 124/167/77 51/168/78 50/97/75
f 124/167/77 125/36/79 52/41/80 51/168/78
f 125/36/79 126/29/81 53/35/82 52/41/80
f 126/29/81 127/28/83 54/34/84 53/35/82
f 127/28/83 128/33/85 55/38/86 54/34/84
f 128/33/85 129/37/87 56/42/88 55/38/86
f 129/37/87 130/184/89 57/186/90 56/42/88
f 130/184/89 131/185/91 58/187/92 57/186/90
f 131/91/91 132/84/93 59/90/94 58/96/92
f 132/84/93 133/83/95 60/89/96 59/90/94
f 133/83/95 122/88/73 49/93/76 60/89/96
s 5
f 134/98/97 135/102/98 62/107/99 61/103/100
f 135/102/98 136/169/101 63/170/102 62/107/99
f 136/169/101 137/46/103 64/51/104 63/170/102
f 137/46/103 138/40/105 65/45/106 64/51/104
f 138/40/105 139/39/107 66/44/108 65/45/106
f 139/39/107 140/43/109 67/48/110 66/44/108
f 140/43/109 141/47/111 68/52/112 67/48/110
f 141/47/111 142/188/113 69/190/114 68/52/112
f 142/188/113 143/189/115 70/191/116 69/190/114
f 143/101/115 144/95/117 71/100/118 70/106/116
f 144/95/117 145/94/119 72/99/120 71/100/118
f 145/94/119 134/98/97 61/103/100 72/99/120
s 6
f 61/103/121 62/107/122 92/110/123 93/108/124
f 62/107/122 63/170/125 91/171/126 92/110/123
f 63/170/125 64/51/127 90/54/128 91/171/126
f 64/51/127 65/45/129 89/50/130 90/54/128
f 65/45/129 66/44/131 88/49/132 89/50/130
f 66/44/131 67/48/133 87/53/134 88/49/132
f 67/48/133 68/52/135 86/55/136 87/53/134
f 68/52/135 69/190/137 97/192/138 86/55/136
f 69/190/137 70/191/139 96/193/140 97/192/138
f 70/106/139 71/100/141 95/105/142 96/109/140
f 71/100/141 72/99/143 94/104/144 95/105/142
f 72/99/143 61/103/121 93/108/124 94/104/144
s 7
f 2/135/145 1/136/146 73/137/147
f 3/139/148 2/135/145 73/137/147
f 4/141/149 3/139/148 73/137/147
f 5/143/150 4/141/149 73/137/147
f 6/145/151 5/143/150 73/137/147
f 7/147/152 6/145/151 73/137/147
f 8/146/153 7/147/152 73/137/147
f 9/144/154 8/146/153 73/137/147
f 10/142/155 9/144/154 73/137/147
f 11/140/156 10/142/155 73/137/147
f 12/138/157 11/140/156 73/137/147
f 1/136/146 12/138/157 73/137/147
s 8
f 75/23/158 74/31/159 20/25/160 19/15/161
f 76/14/162 75/23/158 19/15/161 18/6/163
f 77/13/164 76/14/162 18/6/163 17/5/165
f 78/24/166 77/13/164 17/5/165 16/16/167
f 79/165/168 78/24/166 16/16/167 15/163/169
f 80/86/170 79/165/168 15/163/169 14/80/171
f 81/78/172 80/86/170 14/80/171 13/70/173
f 82/69/174 81/78/172 13/70/173 24/61/175
f 83/68/176 82/69/174 24/61/175 23/60/177
f 84/79/178 83/68/176 23/60/177 22/71/179
f 85/178/180 84/182/178 22/179/179 21/174/181
f 74/31/159 85/178/180 21/174/181 20/25/160
s 3
f 99/65/70 98/64/72 48/75/182 47/76/183
f 100/77/68 99/65/70 47/76/183 46/85/184
f 101/177/66 100/180/68 46/183/184 45/181/185
f 102/26/64 101/177/66 45/181/185 44/32/186
f 103/19/62 102/26/64 44/32/186 43/27/187
f 104/9/60 103/19/62 43/27/187 42/20/188
f 105/10/58 104/9/60 42/20/188 41/21/189
f 106/22/56 105/10/58 41/21/189 40/30/190
f 107/164/54 106/22/56 40/30/190 39/166/191
f 108/81/51 107/164/54 39/166/191 38/87/192
f 109/74/52 108/81/51 38/87/192 37/82/193
f 98/64/72 109/74/52 37/82/193 48/75/182
s 2
f 13/70/194 14/80/195 111/72/26 110/62/25
f 14/80/195 15/163/196 112/161/29 111/72/26
f 15/163/196 16/16/197 113/11/31 112/161/29
f 16/16/197 17/5/198 114/1/33 113/11/31
f 17/5/198 18/6/199 115/2/35 114/1/33
f 18/6/199 19/15/200 116/7/37 115/2/35
f 19/15/200 20/25/201 117/17/39 116/7/37
f 20/25/201 21/174/202 118/172/41 117/17/39
f 21/174/202 22/179/203 119/175/43 118/172/41
f 22/71/203 23/60/204 120/56/45 119/66/43
f 23/60/204 24/61/205 121/57/47 120/56/45
f 24/61/205 13/70/194 110/62/25 121/57/47
s 4
f 37/82/206 38/87/207 123/92/74 122/88/73
f 38/87/207 39/166/208 124/167/77 123/92/74
f 39/166/208 40/30/209 125/36/79 124/167/77
f 40/30/209 41/21/210 126/29/81 125/36/79
f 41/21/210 42/20/211 127/28/83 126/29/81
f 42/20/211 43/27/212 128/33/85 127/28/83
f 43/27/212 44/32/213 129/37/87 128/33/85
f 44/32/213 45/181/214 130/184/89 129/37/87
f 45/181/214 46/183/215 131/185/91 130/184/89
f 46/85/215 47/76/216 132/84/93 131/91/91
f 47/76/216 48/75/217 133/83/95 132/84/93
f 48/75/217 37/82/206 122/88/73 133/83/95
s 5
f 49/93/218 50/97/219 135/102/98 134/98/97
f 50/97/219 51/168/220 136/169/101 135/102/98
f 51/168/220 52/41/221 137/46/103 136/169/101
f 52/41/221 53/35/222 138/40/105 137/46/103
f 53/35/222 54/34/223 139/39/107 138/40/105
f 54/34/223 55/38/224 140/43/109 139/39/107
f 55/38/224 56/42/225 141/47/111 140/43/109
f 56/42/225 57/186/226 142/188/113 141/47/111
f 57/186/226 58/187/227 143/189/115 142/188/113
f 58/96/227 59/90/228 144/95/117 143/101/115
f 59/90/228 60/89/229 145/94/119 144/95/117
f 60/89/229 49/93/218 134/98/97 145/94/119
s 9
f 89/148/230 146/149/231 91/150/232 90/151/233
f 91/150/232 146/149/231 93/154/234 92/155/235
f 87/152/236 146/149/231 89/148/230 88/153/237
f 95/158/238 146/149/231 97/157/239 96/160/240
f 87/152/236 86/156/241 97/157/239 146/149/231
f 93/154/234 146/149/231 95/158/238 94/159/242
